<svg xmlns="http://www.w3.org/2000/svg"><style>:root svg:not(:target){display:none}</style><svg viewBox="0 0 13 16" fill="none" id="address-icon"><path fill-rule="evenodd" clip-rule="evenodd" d="M11.8 6.5c0 2.33-1.37 4.42-2.91 6.01a17.54 17.54 0 0 1-2.39 2.05 16.93 16.93 0 0 1-2.39-2.05c-1.54-1.6-2.91-3.68-2.91-6.01a5.3 5.3 0 1 1 10.6 0Zm1.2 0c0 5.59-6.5 9.5-6.5 9.5s-6.5-3.91-6.5-9.5a6.5 6.5 0 0 1 13 0Zm-4.2 0a2.3 2.3 0 1 1-4.6 0 2.3 2.3 0 0 1 4.6 0Zm1.2 0a3.5 3.5 0 1 1-7 0 3.5 3.5 0 0 1 7 0Z" fill="#7859CF"></path></svg><svg viewBox="0 0 10 6" fill="none" id="arrow-down"><path fill-rule="evenodd" clip-rule="evenodd" d="m0 1.2 1.24-1.2 3.76 3.62 3.76-3.62 1.24 1.2-5 4.8-5-4.8Z" fill="#7859CF"></path></svg><svg viewBox="0 0 11 20" fill="none" id="arrow-left"><path fill-rule="evenodd" clip-rule="evenodd" d="m1.28 0-1.28 1.32 8.43 8.68-8.43 8.68 1.28 1.32 9.72-10-9.72-10Z" fill="#7859CF"></path></svg><svg viewBox="0 0 11 20" fill="none" id="arrow-right"><path fill-rule="evenodd" clip-rule="evenodd" d="m9.72 0 1.28 1.32-8.43 8.68 8.43 8.68-1.28 1.32-9.72-10 9.72-10Z" fill="#7859CF"></path></svg><svg viewBox="0 0 16 16" fill="none" id="basket-icon"><path fill-rule="evenodd" clip-rule="evenodd" d="m5.66 3.88.23 2.79h4.22l.23-2.8a2.35 2.35 0 1 0-4.68 0Zm5.78 2.79.23-2.68a3.68 3.68 0 1 0-7.34 0l.23 2.68h-4.56l.19 1.33.82 5.71a2.67 2.67 0 0 0 2.64 2.29h8.7c1.33 0 2.46-.98 2.64-2.29l.82-5.71.19-1.33h-4.55Zm-.1 1.33h-.06l-.22 2.67h3.02l.38-2.67h-3.13Zm-1.4 0h-3.88l.22 2.67h3.44l.22-2.67Zm-5.22 0h-3.18l.38 2.67h3.02l-.22-2.67Zm1.9 6.67-.23-2.67h3.22l-.22 2.67h-2.78Zm4.33-2.67-.23 2.67h1.63c.67 0 1.23-.5 1.32-1.15l.22-1.52h-2.94Zm-5.9 0 .23 2.67h-1.63c-.67 0-1.23-.5-1.32-1.15l-.22-1.52h2.94Z" fill="#333"></path></svg><svg viewBox="0 0 20 16" fill="none" id="basket-plus-icon"><path fill-rule="evenodd" clip-rule="evenodd" d="M13.67 13.52v-.02h1.35l-.03.21a2.67 2.67 0 0 1-2.64 2.29h-8.7a2.67 2.67 0 0 1-2.64-2.29l-.82-5.71-.19-1.33h4.55l-.22-2.68a3.68 3.68 0 0 1 7.29-.99h-1.37a2.35 2.35 0 0 0-4.59.88l.23 2.79h3.61v1.33h-3.44l.22 2.67h3.44l.01-.17h1.34l-.01.17h1.44v1.33h-1.55l-.23 2.67h1.63c.67 0 1.23-.5 1.32-1.15Zm-8.95-5.52h-3.18l.38 2.67h3.02l-.22-2.67Zm1.9 6.67-.23-2.67h3.22l-.22 2.67h-2.78Zm-1.57-2.67.23 2.67h-1.63c-.67 0-1.23-.5-1.32-1.15l-.22-1.52h2.94Zm10.75-2v-2.8h-2.8v-1.4h2.8v-2.8h1.4v2.8h2.8v1.4h-2.8v2.8h-1.4Z" fill="#fff"></path></svg><svg viewBox="0 0 12 12" fill="none" id="burger-menu-close-icon"><path fill-rule="evenodd" clip-rule="evenodd" d="m5.03 6-5.03-5.03.97-.97 5.03 5.03 5.03-5.03.97.97-5.03 5.03 5.03 5.03-.97.97-5.03-5.03-5.03 5.03-.97-.97 5.03-5.03Z" fill="#333"></path></svg><svg viewBox="0 0 16 12" fill="none" id="burger-menu"><path fill-rule="evenodd" clip-rule="evenodd" d="M0 0h16v1.5h-16v-1.5Zm0 5.25h16v1.5h-16v-1.5Zm16 5.25h-16v1.5h16v-1.5Z" fill="#333"></path></svg><svg viewBox="0 0 52 56" fill="none" id="clock-icon"><path fill-rule="evenodd" clip-rule="evenodd" d="M24 4h8v3h-3v3.02c3.82.16 7.39 1.26 10.5 3.06 1.85-1.93 6.26.17 4.76 3.66l-.1-.1a23 23 0 1 1-32.43.1c-2.02-3.03 2.59-6.16 4.77-3.66 3.11-1.8 6.68-2.9 10.5-3.06v-3.02h-3v-3Z" fill="#F0EBFF"></path><path fill-rule="evenodd" clip-rule="evenodd" d="M27 1h-6v1h6v-1Zm-2 2h3v-3h-8v3h3v3.02a22.87 22.87 0 0 0-9.6 2.57l-.15-.17c-1.53-1.76-3.85-1.44-5.3-.4a4.14 4.14 0 0 0-1.6 2.26c-.26.96-.1 2.02.56 3.01l.12.19a23 23 0 1 0 33.99.05l.16-.4c.47-1.08.5-2.13.17-3.04-.32-.9-.95-1.6-1.68-2.06-1.41-.89-3.54-1.06-4.9.36l-.17.2a22.87 22.87 0 0 0-9.6-2.57v-3.02Zm-1 4c-3.86 0-7.49 1-10.64 2.74l-.36.2a22 22 0 1 0 22 0l-.36-.2a21.9 21.9 0 0 0-10.64-2.74Zm-11.5 2.08a23.08 23.08 0 0 0-4.76 3.66 2.98 2.98 0 0 1-.44-.98c-.55-2.31 2.31-4.31 4.35-3.34.3.15.6.37.85.66Zm23 0a23.08 23.08 0 0 1 4.76 3.66c.17-.4.26-.77.3-1.12.2-2.33-2.32-3.74-4.1-3.14-.36.12-.69.32-.96.6Zm-11.5 21.92a2 2 0 0 0 .86-3.8l-.91-.2a2 2 0 0 0 .05 4Zm-.64-4.93-1.34-4.94-.04-.14.05-.15 1.5-4.5.47-1.42.47 1.42 1.5 4.5.05.15-.04.14-1.34 4.94.37.1 7.55-13.42.88.5-7.55 13.42a3 3 0 1 1-2.53-.6Zm-.34-5.06.98 3.59.98-3.59-.98-2.93-.98 2.93Z" fill="#7859CF"></path></svg><svg viewBox="0 0 112 16" fill="none" id="developer-logo"><path d="M8.32 3.6h.88v8.4h-.88v-8.4Zm-5.26 8.4h-.88v-8.4h.88v8.4Zm5.34-3.88h-5.43v-.78h5.43v.78Zm5.17 3.88v-7.63h-2.95v-.77h6.79v.77h-2.95v7.63h-.89Zm5.26 0v-8.4h.73l3.84 6.55h-.38l3.8-6.55h.73v8.4h-.85v-7.07h.2l-3.5 6h-.42l-3.53-6h.23v7.07h-.85Zm11.46 0v-8.4h.89v7.63h4.7v.77h-5.59Zm8.86 0 3.84-8.4h.88l3.84 8.4h-.94l-3.53-7.88h.36l-3.52 7.88h-.93Zm1.51-2.24.27-.72h4.88l.27.72h-5.42Zm10.82 2.3a3.09 3.09 0 0 1-3.25-3.22 3 3 0 0 1 1.57-2.8c.5-.26 1.05-.4 1.68-.4.53 0 1.02.1 1.45.31.43.21.77.52 1.02.94l-.64.43a2 2 0 0 0-.8-.7 2.4 2.4 0 0 0-1.05-.24c-.44 0-.85.1-1.2.32-.37.2-.65.48-.86.85-.2.37-.31.8-.31 1.3 0 .49.1.92.31 1.29a2.27 2.27 0 0 0 2.06 1.16c.38 0 .73-.07 1.05-.22.32-.16.59-.39.8-.7l.64.43a2.5 2.5 0 0 1-1.02.94c-.43.2-.92.31-1.45.31Zm8.09-.06v-1.4l-.04-.22v-2.33c0-.53-.15-.95-.45-1.23-.3-.3-.74-.44-1.33-.44a3.33 3.33 0 0 0-2.1.75l-.39-.64c.32-.27.7-.48 1.15-.62.45-.15.92-.23 1.42-.23.82 0 1.44.2 1.88.61.45.4.68 1.01.68 1.84v3.91h-.82Zm-2.17.06a3.1 3.1 0 0 1-1.24-.23c-.34-.16-.6-.37-.79-.65a1.7 1.7 0 0 1-.28-.96c0-.32.08-.62.23-.88.16-.28.42-.5.77-.65.36-.17.84-.25 1.44-.25h2.17v.63h-2.15c-.6 0-1.03.11-1.27.33-.23.21-.35.48-.35.8 0 .36.14.65.42.86.28.22.68.33 1.18.33.48 0 .9-.11 1.24-.33.35-.22.6-.54.76-.96l.2.6a2 2 0 0 1-.84.99c-.4.25-.9.37-1.5.37Zm7.8 0a2.96 2.96 0 0 1-2.74-1.54 3.4 3.4 0 0 1-.4-1.68c0-.64.14-1.2.41-1.68.27-.48.65-.85 1.12-1.11a3.25 3.25 0 0 1 3.09-.04c.44.25.8.61 1.05 1.1.26.47.4 1.05.4 1.73a3.6 3.6 0 0 1-.39 1.74 2.73 2.73 0 0 1-2.53 1.48Zm.07-.76c.45 0 .85-.1 1.2-.3.36-.2.64-.5.84-.86.2-.38.31-.8.31-1.3s-.1-.92-.31-1.3a2.31 2.31 0 0 0-2.04-1.16 2.3 2.3 0 0 0-2.03 1.17c-.2.37-.31.8-.31 1.3 0 .48.1.91.31 1.29.2.37.49.66.84.86.35.2.75.3 1.19.3Zm2.37.7v-1.9l.09-1.27-.12-1.27v-4.46h.85v8.9h-.82Zm5.87.06c-.66 0-1.23-.14-1.73-.4a3.06 3.06 0 0 1-1.58-2.82c0-.62.13-1.17.4-1.65a2.99 2.99 0 0 1 2.68-1.55 3 3 0 0 1 1.57.4c.47.27.83.65 1.1 1.14a3.4 3.4 0 0 1 .38 1.8v.13h-5.49v-.64h5.03l-.33.25a2.41 2.41 0 0 0-1.1-2.05 2.2 2.2 0 0 0-1.16-.3c-.43 0-.82.1-1.16.3-.35.2-.62.48-.8.84-.2.36-.3.77-.3 1.24v.13c0 .48.1.9.32 1.27.21.36.5.65.88.85.39.2.82.3 1.31.3.39 0 .74-.06 1.07-.2.34-.14.62-.34.86-.62l.48.55c-.28.33-.63.59-1.05.77a3.5 3.5 0 0 1-1.38.26Zm12.44-6.42c.5 0 .95.1 1.33.3.38.2.68.49.89.89.21.4.32.9.32 1.51v3.66h-.85v-3.58c0-.66-.16-1.16-.48-1.5-.31-.34-.76-.51-1.33-.51-.44 0-.81.09-1.13.27-.31.18-.56.44-.73.78-.17.34-.26.75-.26 1.23v3.31h-.85v-3.58c0-.66-.16-1.16-.48-1.5a1.75 1.75 0 0 0-1.34-.51c-.43 0-.8.09-1.12.27a1.8 1.8 0 0 0-.74.78c-.17.34-.25.75-.25 1.23v3.31h-.86v-6.3h.82v1.7l-.13-.3c.2-.45.5-.8.92-1.06.43-.27.94-.4 1.53-.4.61 0 1.14.16 1.57.47.43.3.71.76.84 1.38l-.34-.13c.19-.52.51-.93.97-1.24a2.94 2.94 0 0 1 1.7-.48Zm4.78 8.75c-.3 0-.58-.05-.85-.15-.26-.1-.5-.24-.68-.43l.4-.63a1.64 1.64 0 0 0 1.14.48c.28 0 .52-.08.72-.24.21-.16.4-.43.6-.82l.4-.92.1-.14 2.59-5.84h.84l-3.16 7.06c-.17.4-.37.73-.59.97-.2.24-.43.4-.68.5-.25.1-.52.16-.83.16Zm1.68-2.21-2.9-6.48h.89l2.56 5.78-.55.7Zm18.81-6.43-5.25-3.25-5.19 3.25v-4.34l5.22-.58 5.22.58v4.34Zm0 .58-2.1 1.3-3.14-1.97v.57l2.68 1.68-.46.29-2.22-1.4v.58l1.75 1.1-.41.29h-.01l-1.33-.82v.58l.87.53-.89.56-5.16-3.23 5.17-3.28 5.24 3.22Zm0 5.44-5.22 3.27-5.22-3.27v-4.74l5.2 3.25v.59l-3.56-2.23v.57l3.58 2.26v.6l-3.57-2.23v.57l3.57 2.26 3.6-2.27v-2.44l1.62-1.01v4.82Zm-5.22-11.77-6 .66v11.58l6 3.76 6-3.76v-11.58l-6-.66Z" fill="#BDBDBD"></path></svg><svg viewBox="0 0 46 56" fill="none" id="leaf-icon"><path fill-rule="evenodd" clip-rule="evenodd" d="M38.7 22.12c.78-6.56 1.5-12.77 7.3-18.12-26.5 0-34.15 8.13-38 14-8.54 13.04-.91 25.67.71 28.09a808.17 808.17 0 0 0-4.71 9.47l.88.44c.64-1.27 1.3-2.6 1.98-4l2.65-5.32c2.6.87 14.45 4.19 21.99-4.68 5.66-6.66 6.45-13.44 7.2-19.88Z" fill="#F0EBFF"></path><path fill-rule="evenodd" clip-rule="evenodd" d="M5.23 41.05c3.96-7.8 8.46-15.96 13.04-21.05l.73.66c-4.57 5.08-9.07 13.3-13.03 21.12a26.2 26.2 0 0 0 7.12 1.22c4.38.12 9.66-.96 13.65-5.65 5.46-6.42 6.22-12.94 6.98-19.4l.02-.13c.68-5.81 1.38-11.64 5.87-16.8-11.79.23-19.48 2.16-24.67 4.68a23.8 23.8 0 0 0-10.1 8.85 22.6 22.6 0 0 0-2.94 18.88 28.93 28.93 0 0 0 3.33 7.63Zm-.52 1.04c-1.62-2.42-9.25-15.05-.71-28.09 3.78-5.76 11.23-13.7 36.55-14h1.45a22 22 0 0 0-1.02 1c-4.87 5.12-5.55 10.96-6.27 17.12-.76 6.44-1.55 13.22-7.21 19.88-7.54 8.87-19.4 5.55-21.99 4.68l-2.65 5.32c-.68 1.4-1.34 2.73-1.98 4l-.88-.44 1.97-3.96 2.74-5.51Z" fill="#7859CF"></path></svg><svg viewBox="0 0 42 56" fill="none" id="lightning-icon"><path fill-rule="evenodd" clip-rule="evenodd" d="m19.97 35.2 18.16-31.2-34.13 26.68 15.97 4.52Zm6.06-10.4-18.16 31.2 34.13-26.68-15.97-4.52Z" fill="#F0EBFF"></path><path fill-rule="evenodd" clip-rule="evenodd" d="m34.13 0-34.13 26.68 15.97 4.52-12.1 20.8 34.13-26.68-15.97-4.52 12.1-20.8Zm1.7 25.75-15.32-4.34 10.15-17.42-28.5 22.26 15.33 4.34-10.15 17.42 28.5-22.26Z" fill="#7859CF"></path></svg><svg viewBox="0 0 13 16" fill="none" id="phone-icon"><path fill-rule="evenodd" clip-rule="evenodd" d="M1.48 1.49a2.7 2.7 0 0 0-1.43 2.83l.35 1.77c.93 3.13 2.5 5.77 4.83 8.11l1.4 1.2c.86.72 2.17.8 3.24.2l2.23-1.25c.88-.49 1.17-1.53.63-2.26l-1.93-2.6c-.52-.7-1.6-.82-2.37-.26l-1.38.99a5.23 5.23 0 0 1-2.17-3.67l1.56-.66c.9-.37 1.33-1.33.96-2.11l-1.36-2.93c-.38-.82-1.46-1.1-2.33-.6l-2.23 1.24Zm-.2 2.53c-.12-.6.2-1.22.78-1.55l2.23-1.24c.22-.13.5-.06.59.15l1.36 2.93c.1.2-.02.43-.24.53l-2.43 1.02.02.42a6.28 6.28 0 0 0 3.07 5.16l.36.22 2.13-1.53c.2-.14.46-.11.59.06l1.93 2.61c.14.19.07.45-.15.57l-2.23 1.25c-.59.33-1.3.28-1.77-.12l-1.4-1.19a20.91 20.91 0 0 1-4.48-7.52l-.36-1.77Z" fill="#7859CF"></path></svg><svg viewBox="0 0 52 56" fill="none" id="shield-icon"><path d="M4 4h48l-4 44-20 8-20-8-4-44Z" fill="#F0EBFF"></path><path fill-rule="evenodd" clip-rule="evenodd" d="M1 0h-1l.1 1 3.9 43 20 8 20-8 3.9-43 .1-1h-47Zm.1 1 .36 4h45.08l.37-4h-45.81Zm40.8 5h-35.8l.1 1.13-.5.05-.5.04-.11-1.22h-3.54l3.39 37.3 19.06 7.62 19.06-7.62 3.39-37.3h-3.54l-.1 1.22-.5-.04-.5-.05.1-1.13Zm-35.8 5.62-.5.04.39 4.45.5-.05.5-.04-.4-4.45-.5.05Zm.78 8.88-.5.05.4 4.44.5-.04.5-.05-.4-4.44-.5.04Zm.8 8.89-.5.04.4 4.45.5-.05.49-.04-.4-4.45-.5.05Zm.79 8.88-.5.05.2 2.22 1.98.8.18-.46.2-.46-1.42-.58-.15-1.61-.5.04Zm5.82 4.23-.19.46 3.96 1.62.2-.47.18-.46-3.96-1.61-.19.46Zm7.92 3.23-.19.46 1.98.81 1.98-.8-.19-.47-.19-.46-1.6.65-1.6-.65-.19.46Zm7.54-1.62.19.47 3.96-1.62-.2-.46-.18-.46-3.96 1.61.19.46Zm7.92-3.23.18.47 1.98-.81.2-2.22-.5-.05-.5-.04-.14 1.61-1.41.58.19.46Zm2.26-7.05.5.05.4-4.45-.5-.04-.5-.05-.4 4.45.5.04Zm.8-8.88.49.04.4-4.44-.5-.05-.5-.04-.4 4.44.5.05Zm.78-8.89.5.05.4-4.45-.5-.04-.5-.05-.4 4.45.5.04Z" fill="#7859CF"></path></svg><svg viewBox="0 0 20 20" fill="none" id="social-classmates-icon"><path fill-rule="evenodd" clip-rule="evenodd" d="M1.4 1.4c-1.4 1.41-1.4 3.67-1.4 8.2v.91c0 4.46 0 6.7 1.4 8.09 1.41 1.4 3.67 1.4 8.2 1.4h.91c4.46 0 6.7 0 8.09-1.4 1.4-1.41 1.4-3.67 1.4-8.2v-.91c0-4.46 0-6.7-1.4-8.09-1.41-1.4-3.67-1.4-8.2-1.4h-.91c-4.46 0-6.7 0-8.09 1.4Zm8.62 8.8a3.03 3.03 0 1 0-.01-6.07 3.03 3.03 0 0 0 0 6.07Zm0-4.28a1.25 1.25 0 0 1 0 2.5c-.69 0-1.25-.56-1.25-1.25a1.23 1.23 0 0 1 1.25-1.25Zm1.21 6.76a5.73 5.73 0 0 0 1.76-.72.88.88 0 0 0 .28-1.24.88.88 0 0 0-1.24-.27 3.85 3.85 0 0 1-4.08 0 .9.9 0 0 0-1.23.27.9.9 0 0 0 .3 1.22 5.8 5.8 0 0 0 1.77.72l-1.69 1.69a.89.89 0 0 0 0 1.25c.18.18.4.25.63.25.24 0 .46-.09.64-.25l1.67-1.67 1.67 1.67a.89.89 0 0 0 1.25-1.25l-1.73-1.67Z" fill="#BDBDBD"></path></svg><svg viewBox="0 0 22 22" fill="none" id="social-pinterest-icon"><path d="M11 0a11 11 0 0 0-4 21.25c-.1-.87-.2-2.21.03-3.16l1.29-5.47s-.33-.66-.33-1.63c0-1.53.89-2.67 2-2.67.93 0 1.38.7 1.38 1.54 0 .95-.6 2.36-.9 3.67-.27 1.1.54 1.99 1.62 1.99 1.96 0 3.46-2.07 3.46-5.04 0-2.64-1.9-4.48-4.6-4.48a4.76 4.76 0 0 0-4.96 4.78c0 .94.36 1.96.82 2.5.09.12.1.21.07.32l-.3 1.25c-.05.2-.16.24-.37.15-1.38-.64-2.23-2.65-2.23-4.26 0-3.47 2.52-6.66 7.26-6.66 3.82 0 6.78 2.72 6.78 6.35 0 3.8-2.39 6.84-5.7 6.84-1.12 0-2.17-.58-2.52-1.26l-.69 2.62a12.3 12.3 0 0 1-1.37 2.88 11 11 0 1 0 3.26-21.51Z" fill="#BDBDBD"></path></svg><svg viewBox="0 0 20 20" fill="none" id="social-vk-icon"><path fill-rule="evenodd" clip-rule="evenodd" d="M1.4 1.4c-1.4 1.41-1.4 3.67-1.4 8.2v.8c0 4.53 0 6.79 1.4 8.2 1.41 1.4 3.67 1.4 8.2 1.4h.8c4.53 0 6.79 0 8.2-1.4 1.4-1.41 1.4-3.67 1.4-8.2v-.8c0-4.53 0-6.79-1.4-8.2-1.41-1.4-3.67-1.4-8.2-1.4h-.8c-4.53 0-6.79 0-8.2 1.4Zm1.98 4.68c.1 5.2 2.7 8.33 7.26 8.33h.26v-2.98a4.11 4.11 0 0 1 3.45 2.98h2.37a6.58 6.58 0 0 0-3.43-4.18 6.35 6.35 0 0 0 2.93-4.15h-2.15c-.47 1.65-1.85 3.15-3.17 3.3v-3.3h-2.15v5.77c-1.33-.33-3.02-1.95-3.1-5.77h-2.27Z" fill="#BDBDBD"></path></svg><svg viewBox="0 0 16 16" fill="none" id="user-icon"><path fill-rule="evenodd" clip-rule="evenodd" d="M10.67 4a2.67 2.67 0 1 1-5.34 0 2.67 2.67 0 0 1 5.34 0Zm1.33 0a4 4 0 1 1-8 0 4 4 0 0 1 8 0Zm-8.8 8.31a7.55 7.55 0 0 1 4.8-1.64c1.84 0 3.56.6 4.8 1.64a4.83 4.83 0 0 1 1.87 3.69h1.33c0-1.77-.84-3.46-2.34-4.71a8.88 8.88 0 0 0-5.66-1.96c-2.12 0-4.16.7-5.66 1.96a6.16 6.16 0 0 0-2.34 4.71h1.33c0-1.33.63-2.66 1.87-3.69Z" fill="#333"></path></svg></svg>